<?xml version="1.0" encoding="utf-8"?>
<!-- Generator: Adobe Illustrator 24.0.1, SVG Export Plug-In . SVG Version: 6.00 Build 0)  -->
<svg version="1.1" id="Layer_3" xmlns="http://www.w3.org/2000/svg" xmlns:xlink="http://www.w3.org/1999/xlink" x="0px" y="0px"
	 viewBox="0 0 433 58.9" style="enable-background:new 0 0 433 58.9;" xml:space="preserve">
<style type="text/css">
	.st0{fill:#FFFFFF;}
</style>
<g>
	<path class="st0" d="M128.3,1.3c2.9-1.1,6.1-0.9,9.1,0c0.4,0.2,0.9,0.3,1.1,0.8c0.5,1.3,0.5,2.7-0.1,4c-1.4-0.8-2.9-1.6-4.5-1.9
		c-1.9-0.3-3.9-0.3-5.6,0.8c-2.3,1.3-3.5,4-4.2,6.5c-0.9,3.2-0.7,6.8,0.8,9.9c0.9,1.7,1.9,3.5,3.7,4.4c2,1,4.4,0.5,6.5,0
		c0.8-0.2,0.7-1.1,0.8-1.7c0.1-2.1,0.1-4.2-0.2-6.3c-0.1-0.8-0.2-1.6-0.1-2.3c1.5-0.1,3-0.1,4.6,0c0,4.2,0,8.4,0,12.6
		c-2.2,0.8-4.5,1.6-6.9,1.7c-2.6,0-5.5,0-7.8-1.5c-2.5-1.6-4.3-4.2-5.2-7c-1.1-3.5-1-7.3,0-10.9C121.5,6.3,124.5,2.8,128.3,1.3z"/>
	<path class="st0" d="M278.8,1.5c2.6-0.8,5.4-0.5,8,0.2c0.5,0.2,1.2,0.4,1.4,1c0.4,1.3,0.4,2.7-0.1,3.9c-2-1.2-4.1-2.2-6.5-2.1
		c-2.5-0.1-4.9,1.3-6.2,3.5c-1.1,1.8-1.7,3.8-2,5.9c-0.6,3.5,0.4,7.1,2.3,9.9c0.8,1.3,2.1,2.3,3.6,2.7c1.7,0.5,3.5,0.1,5.3-0.3
		c0.5-0.1,0.9-0.4,1-0.9c0.3-1.7,0.2-3.4,0.2-5.1c0-1.5-0.4-2.9-0.3-4.4c1.5-0.1,3.1-0.1,4.6,0.1c0.1,2.8,0,5.5,0,8.3
		c0,1.4,0.1,2.9-0.1,4.3c-2.2,0.8-4.5,1.6-6.9,1.7c-2.4,0-4.8,0-7-1.1c-2-1-3.6-2.8-4.7-4.8c-1.3-2.3-2-4.9-1.9-7.5
		c-0.1-3.6,0.7-7.2,2.8-10.2C273.7,4.2,276.1,2.3,278.8,1.5z"/>
	<g>
		<path class="st0" d="M0.9,1.2c21.9,0,43.8,0,65.7,0c0,19,0,38,0,57.1c-21.9,0-43.8,0-65.7,0C0.9,39.2,0.9,20.2,0.9,1.2z M2.6,2.9
			c0,17.9,0,35.8,0,53.7c20.8,0,41.5,0,62.3,0c0-17.9,0-35.8,0-53.7C44.1,2.9,23.3,2.9,2.6,2.9z"/>
	</g>
	<path class="st0" d="M72.7,1.1c4.3,0,8.6,0,12.9,0c-0.6,1.5-1.2,3-1.9,4.4c-1.9-1.2-4.3-1.6-6.5-1.3c0,2.9,0,5.8,0,8.7
		c2.4,0.1,4.8,0,7.2,0c-0.6,1.6-1.1,3.1-1.9,4.6c-1.6-0.7-3.4-1.7-5.2-1.3c-0.2,3.1,0,6.2-0.1,9.3c3.5,0.9,6.9-0.6,10.1-1.9
		c-0.7,1.8-1.4,3.5-2.1,5.3c-4.2,0.2-8.5,0.1-12.8,0c1.1-4.6,1-9.5,1-14.2C73.7,10.3,73.8,5.6,72.7,1.1z"/>
	<path class="st0" d="M147.4,1.5c3.3,0,6.7,0,10,0c1,0,1.9,0,2.9,0.1c-0.6,1.4-1.2,2.9-1.8,4.3c-0.8-0.4-1.7-0.8-2.5-1.1
		c-1.3-0.4-2.7-0.3-4-0.2c-0.1,2.9-0.1,5.9,0,8.8c2.4,0,4.8,0,7.2,0c-0.5,1.5-1.2,3-1.8,4.6c-1.7-0.6-3.4-1.6-5.3-1.2
		c-0.1,1.8,0,3.6,0,5.3c0,1.4-0.1,2.7,0.1,4.1c3.5,0.6,6.8-0.7,10-2c-0.7,1.8-1.4,3.5-2.1,5.3c-4.2,0.2-8.5,0.1-12.7,0
		c1.1-4.8,1-9.7,1-14.6C148.4,10.4,148.4,5.9,147.4,1.5z"/>
	<path class="st0" d="M167.6,1.4c1.7,0,3.4,0,5.1,0c0,1,0,2.1-0.3,3.1c-0.5,1.4-0.5,2.9-0.5,4.4c0,5.3,0,10.5,0,15.8
		c0,0.6,0.1,1.4,0.8,1.6c2.9,0,5.7-0.7,8.2-2.2c0.1,1.7-0.7,3.3-1.7,4.7c-0.4,0.6-1.1,0.6-1.6,0.6c-3.3,0-6.7,0-10,0
		c1.3-7.5,0.5-15.1,0.8-22.7C168.2,4.9,167.8,3.2,167.6,1.4z"/>
	<path class="st0" d="M297.1,1.5c4.3,0,8.6,0,13,0c-0.6,1.5-1.2,2.9-1.9,4.4c-0.8-0.4-1.7-0.9-2.6-1.1c-1.3-0.4-2.6-0.2-3.9-0.2
		c-0.2,2.9-0.1,5.9,0,8.8c2.4,0,4.7,0,7.1,0c-0.5,1.6-1.2,3.1-1.8,4.6c-1.7-0.7-3.4-1.6-5.3-1.3c-0.1,3.1-0.1,6.3,0,9.4
		c3.5,0.7,6.9-0.8,10.1-2c-0.7,1.7-1.4,3.5-2.1,5.3c-4.3,0.3-8.5,0.1-12.8,0.1c1.3-5.9,0.8-11.9,1-17.9C298,8.2,297.9,4.8,297.1,1.5
		z"/>
	<path class="st0" d="M91.3,1.6c1.8,0,3.5-0.1,5.3,0c0.2,0.3,0.4,0.6,0.5,0.9c2.3,5,5.6,9.5,8.6,14.2c1.2,1.8,2.1,3.8,3.6,5.4
		c0-3.8,0.1-7.7,0.2-11.5c0.1-3,0.1-6-0.6-9c1.5,0,3,0,4.5,0c-0.3,3.3-0.5,6.7-0.6,10.1c-0.1,5.9-0.2,11.8,0.4,17.7
		c-1.5-0.1-3.1,0.2-4.6-0.1c-2.7-5.7-6.4-10.9-9.7-16.3c-0.6-1-1.1-2-1.8-3c-0.1,4.3-0.2,8.6-0.1,12.9c0,2.2,0.3,4.4,0.7,6.5
		c-1.6,0-3.2,0-4.8,0c1.3-5,0.6-10.3,0.9-15.4c0.1-2.5,0.1-5,0.2-7.4C94,4.5,92.3,3.2,91.3,1.6z"/>
	<path class="st0" d="M222.4,1.6c4.3,0,8.6,0,12.9,0c-0.5,1.5-1.2,2.9-1.8,4.3c-1-0.5-1.9-1-3-1.2c-1.2-0.3-2.3-0.2-3.5-0.1
		c-0.1,2.9-0.1,5.9,0,8.8c2.4,0,4.7,0,7.1,0c-0.5,1.6-1.2,3.1-1.8,4.6c-1.7-0.6-3.4-1.7-5.2-1.2c-0.2,0.4-0.1,0.9-0.1,1.3
		c0,2.7,0,5.4,0.1,8.1c3.5,0.6,6.8-0.8,10-1.9c-0.6,1.8-1.4,3.4-2,5.2c-4.3,0.3-8.5,0.1-12.8,0.1c1-4.4,1-9,1-13.5
		C223.2,11.2,223.6,6.3,222.4,1.6z"/>
	<path class="st0" d="M241.1,1.6c1.7-0.1,3.3-0.1,5,0c0.4-0.1,0.5,0.3,0.6,0.6c2.4,5,5.6,9.5,8.5,14.2c1.3,1.9,2.3,3.9,3.8,5.7
		c0-3.4,0.2-6.8,0.2-10.2c0-3.4,0.3-6.9-0.6-10.3c1.5,0,3,0,4.6,0c-0.8,9.2-1,18.5-0.3,27.7c-1.5,0-3,0-4.5,0
		c-2.7-5.9-6.6-11.2-10-16.7c-0.5-0.8-0.9-1.7-1.6-2.5c-0.2,3-0.1,6-0.2,8.9c0,3.4,0.1,6.9,0.8,10.3c-1.6,0-3.2,0-4.8,0
		c1.3-4.7,0.7-9.6,0.9-14.5c0.2-2.8,0.1-5.6,0.2-8.4C243.7,4.5,242,3.2,241.1,1.6z"/>
	<path class="st0" d="M317.3,1.9c1.7,0,3.4,0,5.1,0c0.1,2.1-0.9,4.1-0.9,6.2c0,5.7,0,11.5,0,17.2c0,0.6,0.2,1.4,0.9,1.4
		c1.8-0.1,3.6-0.3,5.3-0.9c0.9-0.3,1.8-0.9,2.7-1.2c0,1.7-0.8,3.3-1.7,4.7c-0.4,0.6-1.1,0.6-1.7,0.6c-3.3,0-6.7,0-10,0
		c1.2-6.4,0.7-13,0.8-19.4c0-1.8,0.2-3.6-0.1-5.3C317.6,4.1,317.4,3,317.3,1.9z"/>
	<path class="st0" d="M352.9,1.9c1.7,0,3.4,0,5.1,0c0.2,2.1-0.9,4.1-0.8,6.2c-0.1,5.7,0,11.5,0,17.2c0,0.5,0.2,1.3,0.8,1.4
		c2.9,0,5.7-0.7,8.2-2.2c0.1,1.7-0.8,3.3-1.7,4.7c-0.3,0.6-1,0.6-1.6,0.6c-3.4,0-6.7,0-10.1,0c1.1-6.1,0.7-12.3,0.7-18.5
		c0-2.1,0.3-4.3-0.1-6.4C353.2,3.9,353,2.9,352.9,1.9z"/>
	<path class="st0" d="M371.7,1.9c1.7,0,3.4,0,5.1,0c0,1-0.1,2-0.4,3c-0.7,2.2-0.5,4.4-0.5,6.7c0,4.5,0,9,0,13.5
		c0,0.6,0.1,1.2,0.6,1.6c0.9,0.2,1.8-0.1,2.7-0.1c2-0.2,3.9-1.1,5.7-2c0.1,1.7-0.8,3.3-1.7,4.7c-0.4,0.5-1.1,0.6-1.7,0.6
		c-3.3,0-6.7,0-10,0c0.9-5.7,0.9-11.6,0.7-17.4c0.1-1.7,0.1-3.4,0.1-5.1C372.4,5.6,371.9,3.8,371.7,1.9z"/>
	<g>
		<path class="st0" d="M390.7,2.1c2.1-0.3,4.2,0.1,6.3,0.1c1.6,0,3.2,0.5,4.5,1.4c1.1,0.8,1.9,2,2.3,3.2c0.9,2.6,0.8,5.6-0.5,8.1
			c-0.7,1.3-1.8,2.3-3.1,2.9c-1.7,0.7-3.6,0.9-5.4,1.3c-0.5,3.6,0.1,7.2,0.7,10.7c-1.8,0-3.7,0-5.5,0c0.7-1.9,1-4,1-6
			c0-3.4,0.1-6.8,0.2-10.2C391.5,9.8,390.9,6,390.7,2.1z M395.2,5.1c-0.3,0.2-0.1,0.6-0.2,0.9c0.2,3.4-0.5,6.9,0.1,10.3
			c1.6,0.3,3.5-0.2,4.4-1.6c1.4-2.1,1.2-4.8,0.6-7.2C399.5,5.6,397.1,4.5,395.2,5.1z"/>
	</g>
	<g>
		<path class="st0" d="M198.9,8.6c1.2-0.3,2.8-0.2,3.7,0.8c1,1,1.3,2.6,0.5,3.9c-0.8,1.4-2,2.6-3.1,3.8c1.4,2.1,2.9,4.1,4.5,6.1
			c1-1.6,1.6-3.3,2.6-4.8c0.6-0.3,1.1,0.3,1.5,0.7c-1.1,1.7-2.3,3.3-3.4,5c0.9,1.3,2,2.4,2.9,3.7c-0.9,0-1.9,0.1-2.8-0.2
			c-0.7-0.3-1.1-1-1.6-1.6c-1.8,0.8-3.2,2.5-5.3,2.8c-2.9,0.4-5.6-2.6-5.3-5.4c0.1-2.3,2-4,3.6-5.4c0.3-0.3,0.7-0.5,0.8-0.9
			c-0.4-1.5-1.4-3-1.3-4.6C196.4,10.7,197.3,9,198.9,8.6z M198.5,10.9c-0.5,1.7-0.1,3.6,1.2,4.9c1.2-1.1,2.2-2.6,2-4.2
			c0-0.9-0.6-1.7-1.5-1.7C199.4,9.8,198.7,10.2,198.5,10.9z M196.2,20.7c-0.7,1.3-0.8,3-0.1,4.4c0.6,1.2,1.9,1.9,3.3,1.9
			c1.4-0.2,2.6-1.1,3.7-1.9c-1.6-2.3-3-4.7-4.9-6.8C197.5,19,196.7,19.7,196.2,20.7z"/>
	</g>
	<path class="st0" d="M335.8,27.3c1.3,0,2.5,0,3.8,0c-0.6,2-2.2,3.5-3.6,5.1c-0.6,0.7-1.5,0.5-2.2,0.1c0.5-0.8,1.2-1.5,1.5-2.4
		C335.6,29.2,335.7,28.2,335.8,27.3z"/>
</g>
<g>
	<g>
		<path class="st0" d="M3.9,4.5c19.9,0,39.7,0,59.6,0c0.1,16.9,0,33.8,0,50.7c-19.9,0-39.8,0-59.7,0c0-16.2,0-32.5,0-48.7
			C3.9,5.8,3.9,5.2,3.9,4.5z M8.4,10.1c1.8,6.1,1.3,12.6,1.4,18.9c-0.1,6.9,0.3,13.9-1.4,20.7c6.4,0,12.7,0,19.1,0
			c0.9-2.6,2-5.2,2.9-7.8c-1.1,0.6-2.2,1.2-3.4,1.6c-3.8,1.4-7.9,1.9-12,1.7c0-4.5,0-9.1,0-13.6c2.9,0.1,6.2,0.3,8.5,2.2
			c1-2.1,2.2-4.1,3.2-6.3c-3.9-0.1-7.8,0-11.7,0c-0.1-4.5,0-8.9,0-13.4c3.5,0,7.2,0.5,10.3,2.4c1-2.1,2-4.3,2.9-6.5
			C21.6,10.1,15,10.1,8.4,10.1z M39.3,10.2c0.9,2.2,2,4.3,2.9,6.5c3-2,6.8-2.5,10.3-2.5c0,4.5,0,8.9,0,13.4c-3.9,0-7.9,0-11.8,0
			c1,2.1,2.2,4.1,3.2,6.3c2.4-1.9,5.6-2.2,8.6-2.2c0,4.5,0,9.1,0,13.6c-5.3,0.3-10.9-0.5-15.5-3.4c0.9,2.5,1.9,5.1,2.8,7.6
			c0.1,0.4,0.6,0.2,0.9,0.3c6.1,0,12.2,0,18.3,0c-1.8-6.8-1.3-13.9-1.4-20.9c0.1-6.2-0.4-12.6,1.4-18.6
			C52.4,10.1,45.9,10.1,39.3,10.2z M30.5,28.3c0,1,0.6,1.9,1.2,2.6c-0.7,0.5-1.5,0.9-2,1.7c-0.5,0.8-0.8,1.9-0.6,2.9
			c0.2,1,1.2,1.6,2.1,1.8c1.7,0.2,3.3-0.2,4.8-1c0.3,0.3,0.6,0.7,0.8,1c1.1,0,2.2,0,3.3,0c0-0.1,0-0.4,0-0.5
			c-0.3-0.1-0.6-0.1-0.8-0.2c-0.7-0.7-1.2-1.4-1.7-2.2c0.7-0.9,1.4-1.7,2.2-2.6c-0.3-0.4-0.7-0.7-1-1.1c-0.7,1-1.3,2-1.9,3.1
			c-1-1-1.7-2.1-2.6-3.2c0.7-0.4,1.7-0.6,1.9-1.6c0.1-0.8,0.2-1.8-0.2-2.5c-0.8-0.7-2-0.7-3-0.7C31.8,25.8,30.5,26.9,30.5,28.3z"/>
	</g>
	<path class="st0" d="M33.4,26.7c0.9-0.5,1.9,0.4,1.8,1.3c0.2,1-1,2-1.8,1.4C32.9,28.7,32.8,27.4,33.4,26.7z"/>
	<path class="st0" d="M32.5,31.8c1,1.2,2.1,2.4,3,3.6c-0.9,0.5-2,0.7-3,0.5c-1-0.3-1.4-1.5-1.1-2.4C31.5,32.8,32,32.3,32.5,31.8z"/>
	<g>
		<path class="st0" d="M72.6,35.3c110.6,0,221.3,0,332,0c0,7.6,0,15.2,0,22.7c-110.7,0-221.3,0-332,0C72.5,50.4,72.5,42.9,72.6,35.3
			z M98.6,40.3c-1.6,0.3-3.1,1.1-4.1,2.4c-2.3,2.8-1.7,7.8,1.6,9.6c2.9,1.5,6.8,1.2,9.1-1.2c2.5-2.5,2.5-7.2-0.4-9.4
			C103.2,40.2,100.8,39.9,98.6,40.3z M164.9,40.9c-1.8,1.1-2.3,4-0.7,5.5c1.1,1.1,2.8,1.4,4,2.5c0.8,0.6,0.8,1.9,0,2.6
			c-0.8,0.7-2,0.7-2.9,0.3c-0.7-0.3-1.1-1.1-1.5-1.8c-0.3,0.8-0.5,1.6-0.6,2.5c1.9,1,4.3,1,6.1-0.1c1.7-1.1,2.3-3.7,1-5.3
			c-1.2-1.5-3.5-1.7-4.7-3.2c-0.8-1.2,0.5-2.7,1.8-2.5c1.1-0.1,1.8,0.8,2.4,1.6c0.3-0.6,0.5-1.3,0.6-1.9
			C168.8,40,166.6,39.8,164.9,40.9z M193,40.5c-1.5,0.4-3,1.3-3.8,2.7c-0.9,1.6-1.1,3.5-0.8,5.2c0.4,2,1.9,3.6,3.8,4.3
			c2.1,0.7,4.6,0.6,6.6-0.3c0.1-0.6,0.3-1.2,0.4-1.7c-0.9,0.6-1.9,1.3-3,1.3c-1.6,0.2-3.4-0.6-4.2-2.1c-0.9-1.7-0.9-3.7-0.4-5.5
			c0.5-1.8,2.3-3.4,4.3-3.1c1.2,0,2.1,0.9,2.9,1.6c0.1-0.6,0.3-1.3,0.5-1.9C197.4,40,195.1,39.9,193,40.5z M219.5,40.2
			c-1.6,4.3-3.3,8.5-5.2,12.6c0.6,0,1.2,0,1.8,0c0.3-1.2,0.7-2.4,1.2-3.6c1.4-0.1,2.9-0.1,4.3,0c0.4,1.2,0.8,2.4,1.2,3.6
			c1-0.1,2.1-0.1,3.1,0c-1.8-4.2-3.5-8.4-5-12.7C220.5,40.2,220,40.2,219.5,40.2z M236,40.5c-1.5,0.4-3,1.3-3.8,2.7
			c-0.9,1.6-1.1,3.5-0.8,5.2c0.4,2,1.9,3.6,3.8,4.3c2.1,0.7,4.6,0.6,6.6-0.3c0.1-0.6,0.3-1.2,0.4-1.7c-0.9,0.6-1.9,1.3-3,1.3
			c-1.7,0.2-3.5-0.7-4.3-2.2c-0.8-1.7-0.8-3.7-0.2-5.5c0.6-1.8,2.3-3.2,4.2-2.9c1.2,0,2.1,0.9,2.9,1.6c0.1-0.6,0.3-1.3,0.5-1.9
			C240.4,40,238,39.9,236,40.5z M253.1,40.5c-1.5,0.4-3,1.3-3.8,2.7c-0.9,1.6-1.1,3.5-0.8,5.2c0.4,2,1.9,3.6,3.8,4.3
			c2.1,0.7,4.6,0.6,6.6-0.3c0.1-0.6,0.3-1.2,0.4-1.7c-0.9,0.6-1.9,1.3-3,1.3c-1.6,0.2-3.4-0.6-4.2-2.1c-0.9-1.7-0.9-3.8-0.3-5.6
			c0.6-1.8,2.3-3.2,4.2-2.9c1.2,0,2.1,0.9,2.9,1.6c0.1-0.6,0.3-1.3,0.5-1.9C257.5,40,255.2,39.9,253.1,40.5z M271.2,40.3
			c-1.6,0.3-3.1,1.1-4.1,2.4c-2.3,2.8-1.7,7.8,1.6,9.6c2.9,1.5,6.8,1.2,9.1-1.2c2.5-2.5,2.5-7.2-0.4-9.4
			C275.8,40.2,273.4,39.9,271.2,40.3z M343.4,40.2c-1.6,4.3-3.3,8.5-5.2,12.6c0.6,0,1.2,0,1.8,0c0.3-1.2,0.7-2.4,1.2-3.6
			c1.4-0.1,2.9-0.1,4.3,0c0.4,1.2,0.8,2.4,1.2,3.6c1-0.1,2.1-0.1,3.1,0c-1.8-4.2-3.5-8.4-5-12.7C344.3,40.2,343.9,40.2,343.4,40.2z
			 M392.1,40.8c-1.7,1-2.3,3.4-1.3,5.1c1,1.5,3,1.8,4.3,2.9c0.9,0.6,1,2,0.2,2.7c-0.8,0.7-2,0.7-2.9,0.3c-0.7-0.3-1.1-1.1-1.5-1.8
			c-0.3,0.8-0.5,1.6-0.6,2.4c1.9,1,4.3,1,6.1-0.1c1.7-1.1,2.3-3.7,1-5.3c-1.2-1.5-3.5-1.7-4.7-3.2c-0.8-1.2,0.5-2.7,1.8-2.5
			c1.1-0.1,1.8,0.8,2.4,1.6c0.3-0.6,0.5-1.3,0.6-1.9C395.9,40,393.8,39.8,392.1,40.8z M79.7,40.4c0.2,4.2,0.2,8.3,0,12.5
			c1-0.1,2-0.1,2.9,0c0-2-0.1-3.9-0.1-5.9c1.4-0.1,2.8,0.1,4.1,0.1c-0.1-0.5,0.1-1.1-0.2-1.5c-1.3,0-2.6,0.1-3.9,0.1
			c0-1.3,0-2.6,0.1-3.9c1.4,0,2.7,0.1,4.1,0.2c0-0.5,0-1,0.1-1.6C84.4,40.6,82,40.5,79.7,40.4z M114.4,40.4c0.1,4.2,0.1,8.3,0,12.5
			c1-0.1,2-0.1,2.9,0c0-1.9-0.2-3.8-0.1-5.7c1.3,1.8,2.2,3.8,3.3,5.7c1.1-0.1,2.2-0.1,3.3,0c-1.2-2-2.6-4-3.8-6
			c0.9-0.4,1.8-0.8,2.3-1.6c1-1.5,0.5-3.8-1.2-4.5C119,40,116.7,40.7,114.4,40.4z M130.5,40.4c0.2,4.2,0.2,8.3,0,12.5
			c2.3-0.2,4.7-0.1,7,0c0-0.5,0-1.1,0-1.6c-1.4,0.1-2.8,0.2-4.1,0.2c0-1.5,0-3,0-4.5c1.4-0.1,2.8,0.1,4.1,0.1
			c-0.1-0.5,0.1-1.1-0.2-1.5c-1.3,0-2.6,0.1-3.9,0.1c0-1.3,0-2.6,0.1-3.9c1.4,0,2.7,0.1,4.1,0.2c0-0.5,0-1,0.1-1.6
			C135.2,40.6,132.8,40.5,130.5,40.4z M145.1,40.6c0.1,4.1,0,8.1-0.3,12.2c0.5,0,1.1,0,1.6,0c-0.1-2.9-0.1-5.8-0.1-8.7
			c2.8,2.7,5.4,5.7,8,8.6c0.5,0.1,1,0,1.5,0.1c0.1-4.1,0-8.2,0.3-12.3c-0.5,0-1.2-0.2-1.6,0.1c0.1,2.8,0.1,5.6,0.1,8.4
			c-2.7-2.8-5.3-5.7-7.9-8.5C146.2,40.5,145.5,40.3,145.1,40.6z M178.3,40.4c0.2,4.2,0.2,8.3,0,12.5c1-0.1,2-0.1,2.9,0
			c-0.1-4.2-0.1-8.3,0-12.5C180.2,40.5,179.2,40.5,178.3,40.4z M286.9,40.4c0,1.8,0.1,3.7,0,5.5c0,1.5-0.2,3.2,0.5,4.7
			c0.7,1.5,2.2,2.3,3.8,2.4c1.8,0.2,3.8,0.1,5.2-1.1c1.3-1.3,1.5-3.3,1.5-5c0-2.2,0.1-4.3,0.2-6.4c-0.6,0.1-1.3-0.1-1.8,0.2
			c0,2.7,0.3,5.5-0.1,8.2c-0.2,1.1-0.6,2.3-1.6,2.8c-1,0.5-2.2,0.4-3.2,0c-1.3-0.5-1.6-2.1-1.7-3.3c-0.2-2.6,0-5.2,0.2-7.9
			C288.9,40.5,287.9,40.5,286.9,40.4z M306.3,40.6c0.1,4.1,0,8.1-0.3,12.2c0.5,0,1.1,0,1.6,0c-0.1-2.9-0.1-5.8-0.1-8.7
			c2.8,2.7,5.4,5.7,8,8.6c0.5,0.1,1,0.1,1.5,0.1c0.1-4.1,0-8.2,0.3-12.3c-0.5,0-1.2-0.2-1.6,0.1c0.1,2.8,0.1,5.6,0.1,8.4
			c-2.7-2.8-5.3-5.7-7.9-8.5C307.4,40.5,306.7,40.3,306.3,40.6z M324.2,40.4c0,0.5,0,1.1,0,1.6c1.1-0.1,2.2-0.2,3.3-0.2
			c0.1,3.7,0.1,7.4-0.1,11.1c1-0.1,2-0.1,2.9,0c-0.1-3.7-0.1-7.4-0.1-11.1c1.1,0,2.1,0.1,3.2,0.2c0-0.5,0-1.1,0-1.6
			C330.4,40.6,327.3,40.5,324.2,40.4z M356.9,40.6c0.1,4.1,0,8.1-0.3,12.2c0.5,0,1.1,0,1.6,0c-0.1-2.9-0.1-5.8-0.1-8.7
			c2.8,2.7,5.4,5.7,8,8.6c0.5,0.1,1,0,1.5,0.1c0.1-4.1,0-8.2,0.3-12.3c-0.5,0-1.2-0.2-1.6,0.1c0,2.8,0.1,5.6,0,8.4
			c-2.7-2.8-5.3-5.7-7.9-8.5C358,40.5,357.3,40.3,356.9,40.6z M374.8,40.4c0,0.5,0,1.1,0,1.6c1.1-0.1,2.2-0.2,3.3-0.2
			c0.1,3.7,0.1,7.4-0.1,11.1c1-0.1,2-0.1,2.9,0c-0.1-3.7-0.1-7.4-0.1-11.1c1.1,0,2.1,0.1,3.2,0.2c0-0.5,0-1.1,0-1.6
			C381,40.6,377.9,40.5,374.8,40.4z"/>
	</g>
	<path class="st0" d="M99.8,41.2c1.3-0.1,2.7,0.5,3.4,1.7c0.9,1.4,1,3.1,0.8,4.7c-0.2,1.3-0.6,2.7-1.7,3.6c-1.2,1-3,1.1-4.3,0.3
		c-1.1-0.7-1.6-2-1.8-3.2c-0.2-1.7-0.1-3.5,0.7-5C97.6,42.2,98.6,41.3,99.8,41.2z"/>
	<path class="st0" d="M272.4,41.2c1.3-0.1,2.7,0.5,3.4,1.7c0.9,1.4,1,3.1,0.8,4.7c-0.2,1.3-0.6,2.7-1.7,3.6c-1.2,1-3,1.1-4.3,0.3
		c-1.1-0.7-1.6-2-1.8-3.2c-0.2-1.7-0.1-3.5,0.7-5C270.1,42.2,271.2,41.3,272.4,41.2z"/>
	<path class="st0" d="M117.4,41.4c0.8,0.1,2,0,2.5,0.9c0.4,1,0.4,2.2-0.1,3.1c-0.5,0.9-1.6,1.1-2.5,1.1
		C117.2,44.7,117.2,43,117.4,41.4z"/>
	<path class="st0" d="M217.9,48.1c0.5-1.5,1-2.9,1.7-4.3c0.6,1.4,1.1,2.8,1.6,4.3C220,48.1,218.9,48.1,217.9,48.1z"/>
	<path class="st0" d="M341.7,48.1c0.5-1.5,1-2.9,1.7-4.3c0.6,1.4,1.1,2.8,1.6,4.3C343.9,48.1,342.8,48.1,341.7,48.1z"/>
</g>
</svg>
